<svg xmlns="http://www.w3.org/2000/svg" width="123" height="17.392" viewBox="0 0 123 17.392">
  <g id="Group_2" data-name="Group 2" transform="translate(-80 -42)">
    <text id="WeatherStation" transform="translate(106 55)" fill="#fff" font-size="12" font-family="Poppins-SemiBold, Poppins" font-weight="600"><tspan x="0" y="0">WeatherStation</tspan></text>
    <path id="Icon_awesome-sun" data-name="Icon awesome-sun" d="M8.2,5.123A3.074,3.074,0,1,0,11.27,8.2,3.078,3.078,0,0,0,8.2,5.123ZM16.085,7.7,13.053,6.186l1.073-3.214a.554.554,0,0,0-.7-.7L10.21,3.342,8.692.307a.554.554,0,0,0-.992,0L6.186,3.339,2.968,2.267a.554.554,0,0,0-.7.7L3.339,6.182.307,7.7a.554.554,0,0,0,0,.992l3.032,1.514L2.267,13.424a.554.554,0,0,0,.7.7l3.214-1.073L7.7,16.085a.554.554,0,0,0,.992,0L10.2,13.053l3.214,1.073a.554.554,0,0,0,.7-.7L13.047,10.21,16.078,8.7a.555.555,0,0,0,.006-1Zm-4.991,3.394a4.1,4.1,0,1,1,0-5.795A4.1,4.1,0,0,1,11.094,11.094Z" transform="translate(80 43)" fill="#fff"/>
  </g>
</svg>
