<svg xmlns="http://www.w3.org/2000/svg" width="123" height="18" fill="#fff" xmlns:v="https://vecta.io/nano"><path d="M38.024 4.624L35.684 13h-1.98l-1.572-5.964L30.488 13l-1.968.012-2.256-8.388h1.8l1.476 6.504 1.704-6.504h1.872l1.608 6.468 1.488-6.468h1.812zm7.277 4.908c0 .24-.016.456-.048.648h-4.86c.04.48.208.856.504 1.128s.66.408 1.092.408c.624 0 1.068-.268 1.332-.804h1.812c-.192.64-.56 1.168-1.104 1.584-.544.408-1.212.612-2.004.612-.64 0-1.216-.14-1.728-.42a3.09 3.09 0 0 1-1.188-1.212c-.28-.52-.42-1.12-.42-1.8 0-.688.14-1.292.42-1.812a2.93 2.93 0 0 1 1.176-1.2c.504-.28 1.084-.42 1.74-.42.632 0 1.196.136 1.692.408.504.272.892.66 1.164 1.164.28.496.42 1.068.42 1.716zm-1.74-.48c-.008-.432-.164-.776-.468-1.032-.304-.264-.676-.396-1.116-.396-.416 0-.768.128-1.056.384-.28.248-.452.596-.516 1.044h3.156zm2.534.6c0-.672.132-1.268.396-1.788.272-.52.636-.92 1.092-1.2.464-.28.98-.42 1.548-.42.496 0 .928.1 1.296.3.376.2.676.452.9.756v-.948h1.692V13h-1.692v-.972c-.216.312-.516.572-.9.78-.376.2-.812.3-1.308.3-.56 0-1.072-.144-1.536-.432-.456-.288-.82-.692-1.092-1.212-.264-.528-.396-1.132-.396-1.812zm5.232.024c0-.408-.08-.756-.24-1.044-.16-.296-.376-.52-.648-.672a1.7 1.7 0 0 0-.876-.24 1.7 1.7 0 0 0-.864.228c-.264.152-.48.376-.648.672-.16.288-.24.632-.24 1.032s.08.752.24 1.056c.168.296.384.524.648.684.272.16.56.24.864.24.312 0 .604-.076.876-.228.272-.16.488-.384.648-.672.16-.296.24-.648.24-1.056zm5.289-1.944v3.216c0 .224.052.388.156.492.112.096.296.144.552.144h.78V13h-1.056c-1.416 0-2.124-.688-2.124-2.064V7.732h-.792v-1.38h.792V4.708h1.692v1.644h1.488v1.38h-1.488zm6.44-1.476a2.66 2.66 0 0 1 1.344.336c.392.216.696.54.912.972.224.424.336.936.336 1.536V13h-1.68V9.328c0-.528-.132-.932-.396-1.212-.264-.288-.624-.432-1.08-.432-.464 0-.832.144-1.104.432-.264.28-.396.684-.396 1.212V13h-1.68V4.12h1.68v3.06c.216-.288.504-.512.864-.672.36-.168.76-.252 1.2-.252zm10.37 3.276c0 .24-.016.456-.048.648h-4.86c.04.48.208.856.504 1.128s.66.408 1.092.408c.624 0 1.068-.268 1.332-.804h1.812c-.192.64-.56 1.168-1.104 1.584-.544.408-1.212.612-2.004.612-.64 0-1.216-.14-1.728-.42a3.09 3.09 0 0 1-1.188-1.212c-.28-.52-.42-1.12-.42-1.8 0-.688.14-1.292.42-1.812a2.93 2.93 0 0 1 1.176-1.2c.504-.28 1.084-.42 1.74-.42.632 0 1.196.136 1.692.408.504.272.892.66 1.164 1.164.28.496.42 1.068.42 1.716zm-1.74-.48c-.008-.432-.164-.776-.468-1.032-.304-.264-.676-.396-1.116-.396-.416 0-.768.128-1.056.384-.28.248-.452.596-.516 1.044h3.156zm4.646-1.668c.216-.352.496-.628.84-.828.352-.2.752-.3 1.2-.3V8.02h-.444c-.528 0-.928.124-1.2.372-.264.248-.396.68-.396 1.296V13h-1.68V6.352h1.68v1.032zm6.064 5.7c-.584 0-1.112-.1-1.584-.3-.464-.2-.832-.488-1.104-.864s-.412-.82-.42-1.332h1.8c.024.344.144.616.36.816.224.2.528.3.912.3.392 0 .7-.092.924-.276.224-.192.336-.44.336-.744 0-.248-.076-.452-.228-.612s-.344-.284-.576-.372c-.224-.096-.536-.2-.936-.312-.544-.16-.988-.316-1.332-.468a2.47 2.47 0 0 1-.876-.708c-.24-.32-.36-.744-.36-1.272 0-.496.124-.928.372-1.296s.596-.648 1.044-.84c.448-.2.96-.3 1.536-.3.864 0 1.564.212 2.1.636.544.416.844 1 .9 1.752h-1.848c-.016-.288-.14-.524-.372-.708-.224-.192-.524-.288-.9-.288-.328 0-.592.084-.792.252-.192.168-.288.412-.288.732 0 .224.072.412.216.564a1.94 1.94 0 0 0 .552.36 12.6 12.6 0 0 0 .936.312 9.77 9.77 0 0 1 1.332.48c.344.16.64.4.888.72s.372.74.372 1.26a2.37 2.37 0 0 1-.348 1.248c-.232.384-.572.692-1.02.924-.448.224-.98.336-1.596.336zm6.377-5.352v3.216c0 .224.052.388.156.492.112.096.296.144.552.144h.78V13h-1.056c-1.416 0-2.124-.688-2.124-2.064V7.732h-.792v-1.38h.792V4.708h1.692v1.644h1.488v1.38h-1.488zm2.264 1.92c0-.672.132-1.268.396-1.788.272-.52.636-.92 1.092-1.2.464-.28.98-.42 1.548-.42.496 0 .928.1 1.296.3.376.2.676.452.9.756v-.948h1.692V13h-1.692v-.972c-.216.312-.516.572-.9.78-.376.2-.812.3-1.308.3-.56 0-1.072-.144-1.536-.432-.456-.288-.82-.692-1.092-1.212-.264-.528-.396-1.132-.396-1.812zm5.232.024c0-.408-.08-.756-.24-1.044-.16-.296-.376-.52-.648-.672a1.7 1.7 0 0 0-.876-.24 1.7 1.7 0 0 0-.864.228c-.264.152-.48.376-.648.672-.16.288-.24.632-.24 1.032s.08.752.24 1.056c.168.296.384.524.648.684.272.16.56.24.864.24.312 0 .604-.076.876-.228.272-.16.488-.384.648-.672.16-.296.24-.648.24-1.056zm5.288-1.944v3.216c0 .224.052.388.156.492.112.096.296.144.552.144h.78V13h-1.056c-1.416 0-2.124-.688-2.124-2.064V7.732h-.792v-1.38h.792V4.708h1.692v1.644h1.488v1.38h-1.488zm3.549-2.172c-.296 0-.544-.092-.744-.276a.96.96 0 0 1-.288-.708c0-.28.096-.512.288-.696.2-.192.448-.288.744-.288s.54.096.732.288c.2.184.3.416.3.696s-.1.516-.3.708c-.192.184-.436.276-.732.276zm.828.792V13h-1.68V6.352h1.68zm4.612 6.756c-.64 0-1.216-.14-1.728-.42a3.15 3.15 0 0 1-1.212-1.212c-.288-.52-.432-1.12-.432-1.8s.148-1.28.444-1.8c.304-.52.716-.92 1.236-1.2a3.53 3.53 0 0 1 1.74-.432 3.53 3.53 0 0 1 1.74.432c.52.28.928.68 1.224 1.2.304.52.456 1.12.456 1.8s-.156 1.28-.468 1.8a3.19 3.19 0 0 1-1.248 1.212c-.52.28-1.104.42-1.752.42zm0-1.464a1.75 1.75 0 0 0 .852-.216c.272-.152.488-.376.648-.672s.24-.656.24-1.08c0-.632-.168-1.116-.504-1.452-.328-.344-.732-.516-1.212-.516s-.884.172-1.212.516c-.32.336-.48.82-.48 1.452s.156 1.12.468 1.464c.32.336.72.504 1.2.504zm8.384-5.388c.792 0 1.432.252 1.92.756.488.496.732 1.192.732 2.088V13h-1.68V9.328c0-.528-.132-.932-.396-1.212-.264-.288-.624-.432-1.08-.432-.464 0-.832.144-1.104.432-.264.28-.396.684-.396 1.212V13h-1.68V6.352h1.68v.828c.224-.288.508-.512.852-.672a2.64 2.64 0 0 1 1.152-.252zM9 5.625c-.668 0-1.321.197-1.876.568s-.989.898-1.244 1.515a3.38 3.38 0 0 0 .731 3.679 3.37 3.37 0 0 0 1.729.924 3.38 3.38 0 0 0 1.951-.192c.617-.255 1.145-.688 1.515-1.243s.569-1.208.569-1.876A3.38 3.38 0 0 0 9 5.625h0zm8.666 2.83l-3.328-1.663 1.176-3.53a.61.61 0 0 0-.77-.77L11.213 3.67 9.545.337A.61.61 0 0 0 9 0a.61.61 0 0 0-.545.337L6.792 3.664 3.257 2.489a.61.61 0 0 0-.77.77l1.178 3.53L.337 8.455A.61.61 0 0 0 0 9a.61.61 0 0 0 .337.545l3.328 1.663-1.178 3.534a.61.61 0 0 0 .77.77l3.531-1.178 1.663 3.327a.61.61 0 0 0 1.09 0l1.663-3.327 3.531 1.178a.61.61 0 0 0 .771-.77l-1.178-3.53 3.328-1.663a.61.61 0 0 0 .007-1.094h.002zm-5.483 3.727a4.5 4.5 0 0 1-2.305 1.232c-.873.174-1.778.085-2.601-.256a4.5 4.5 0 0 1 0-8.314 4.5 4.5 0 0 1 4.905.976 4.51 4.51 0 0 1 1.316 3.181 4.5 4.5 0 0 1-1.315 3.181v.001z"/></svg>