<svg xmlns="http://www.w3.org/2000/svg" width="32.027" height="28.467" viewBox="0 0 32.027 28.467">
  <path id="Icon_awesome-cloud-moon" data-name="Icon awesome-cloud-moon" d="M19.059,19.61a3.55,3.55,0,0,0-5.51-4.381,5.32,5.32,0,0,0-9.991,2.563c0,.111.028.211.033.317A5.324,5.324,0,0,0,5.338,28.467H18.681a4.436,4.436,0,0,0,.378-8.857ZM31.43,16.591A8.362,8.362,0,0,1,25.737,1.106a.5.5,0,0,0-.156-.929A11.03,11.03,0,0,0,23.63,0,10.673,10.673,0,0,0,12.96,10.675a10.419,10.419,0,0,0,.1,1.39,6.971,6.971,0,0,1,.929.79,5.336,5.336,0,0,1,7.328,5.532,6.132,6.132,0,0,1,2.975,2.925A10.656,10.656,0,0,0,31.914,17.4.5.5,0,0,0,31.43,16.591Z" fill="#04353c"/>
</svg>
