<svg xmlns="http://www.w3.org/2000/svg" width="35.583" height="28.472" viewBox="0 0 35.583 28.472">
  <path id="Icon_awesome-cloud-sun" data-name="Icon awesome-cloud-sun" d="M31.981,18.109a3,3,0,0,0,.044-.311,3.548,3.548,0,0,0-5.454-3,6.22,6.22,0,0,0-11.893,2.558c0,.167.039.322.05.484a5.325,5.325,0,0,0,.395,10.636H30.246a5.325,5.325,0,0,0,1.735-10.364ZM8.051,16.852A6.226,6.226,0,1,1,18.1,9.869,7.978,7.978,0,0,1,19.8,9.452l1.657-4.943a.843.843,0,0,0-1.068-1.068L15.512,5.071,13.2.467a.841.841,0,0,0-1.507,0l-2.3,4.6L4.509,3.442A.847.847,0,0,0,3.442,4.509L5.071,9.391.467,11.7a.841.841,0,0,0,0,1.507l4.6,2.3L3.442,20.388a.843.843,0,0,0,1.068,1.068L8.74,20.049a7.185,7.185,0,0,1,1.312-1.863,6.131,6.131,0,0,1-2-1.334Zm-.267-4.4a4.671,4.671,0,0,0,3.775,4.576,7.133,7.133,0,0,1,1.4-.651,8.014,8.014,0,0,1,3.747-5.838,4.667,4.667,0,0,0-8.924,1.913Z" fill="#04353c"/>
</svg>
