<svg width="14" height="13" viewBox="0 0 14 13" fill="none" xmlns="http://www.w3.org/2000/svg">
<path d="M3.5 12H10.5C10.6249 11.9998 10.7454 12.0463 10.8378 12.1305C10.9301 12.2147 10.9876 12.3304 10.9989 12.4548C11.0102 12.5793 10.9745 12.7034 10.8988 12.8028C10.8231 12.9023 10.7129 12.9697 10.59 12.992L10.5 13H3.5C3.37505 13.0002 3.25455 12.9537 3.16222 12.8695C3.06988 12.7853 3.01241 12.6696 3.00112 12.5452C2.98984 12.4207 3.02554 12.2966 3.10122 12.1972C3.1769 12.0977 3.28705 12.0303 3.41 12.008L3.5 12ZM1.504 10H12.496C12.774 10 13 10.224 13 10.5C13 10.745 12.822 10.95 12.587 10.992L12.497 11H1.503C1.37003 11.0003 1.24239 10.9478 1.14809 10.854C1.05379 10.7603 1.00053 10.633 1 10.5C1 10.255 1.178 10.05 1.413 10.008L1.503 10H1.504ZM7 0C9.465 0 10.863 1.574 11.066 3.474H11.128C12.714 3.474 14 4.711 14 6.237C14 7.763 12.714 9 11.128 9H2.872C1.286 9 0 7.763 0 6.237C0 4.767 1.192 3.566 2.697 3.479L2.934 3.474C3.139 1.561 4.535 0 7 0Z" fill="#04353C"/>
</svg>