<svg xmlns="http://www.w3.org/2000/svg" width="25.699" height="25.699" viewBox="0 0 25.699 25.699">
  <path id="Icon_awesome-cloud-showers-heavy" data-name="Icon awesome-cloud-showers-heavy" d="M9.23,18.576a.8.8,0,0,0-1.094.3L4.924,24.5a.8.8,0,0,0,.3,1.094.8.8,0,0,0,1.094-.3l3.212-5.622a.8.8,0,0,0-.3-1.094Zm4.819,0a.8.8,0,0,0-1.094.3L9.742,24.5a.8.8,0,0,0,.3,1.094.8.8,0,0,0,1.094-.3l3.212-5.622a.8.8,0,0,0-.3-1.094Zm-9.637,0a.8.8,0,0,0-1.094.3L.105,24.5a.8.8,0,0,0,.3,1.094.8.8,0,0,0,1.094-.3l3.212-5.622a.8.8,0,0,0-.3-1.094Zm19.274,0a.8.8,0,0,0-1.094.3L19.379,24.5a.8.8,0,0,0,.3,1.094.8.8,0,0,0,1.094-.3l3.212-5.622a.8.8,0,0,0-.3-1.094Zm-4.819,0a.8.8,0,0,0-1.094.3L14.561,24.5a.8.8,0,0,0,.3,1.094.8.8,0,0,0,1.094-.3l3.212-5.622a.8.8,0,0,0-.3-1.094ZM20.88,6.425c-.03,0-.055.01-.08.01a3.92,3.92,0,0,0,.08-.813A4,4,0,0,0,13.8,3.052,5.6,5.6,0,0,0,3.212,5.622a5.708,5.708,0,0,0,.105,1.064,4.806,4.806,0,0,0,1.5,9.376H20.88a4.819,4.819,0,1,0,0-9.637Z" transform="translate(0.001)" fill="#04353c"/>
</svg>
