<svg width="16" height="16" viewBox="0 0 16 16" fill="none" xmlns="http://www.w3.org/2000/svg">
<path d="M8 0C8.18124 7.6429e-06 8.35634 0.0656426 8.49293 0.184767C8.62952 0.303891 8.71835 0.468446 8.743 0.648L8.75 0.75V3.123L10.257 1.799C10.4064 1.66772 10.6019 1.60118 10.8004 1.61403C10.9989 1.62687 11.1842 1.71805 11.3155 1.8675C11.4468 2.01695 11.5133 2.21243 11.5005 2.41094C11.4876 2.60944 11.3964 2.79472 11.247 2.926L8.75 5.119V7.248H10.881L13.076 4.752C13.1947 4.61699 13.3579 4.5291 13.5359 4.50432C13.714 4.47954 13.895 4.51953 14.046 4.617L14.135 4.684C14.27 4.80267 14.3579 4.96589 14.3827 5.14392C14.4075 5.32196 14.3675 5.50297 14.27 5.654L14.203 5.743L12.878 7.248H15.251C15.4324 7.24804 15.6076 7.31382 15.7442 7.43314C15.8808 7.55247 15.9696 7.71726 15.994 7.897L16.001 7.999C16.001 8.18024 15.9354 8.35534 15.8162 8.49193C15.6971 8.62852 15.5326 8.71735 15.353 8.742L15.251 8.749H12.876L14.201 10.257C14.3197 10.3919 14.3859 10.565 14.3878 10.7446C14.3896 10.9243 14.3269 11.0987 14.211 11.236L14.133 11.316C13.9979 11.4348 13.8246 11.5011 13.6447 11.5027C13.4648 11.5044 13.2903 11.4413 13.153 11.325L13.074 11.247L10.879 8.749L8.749 8.748L8.75 10.88L11.248 13.074C11.3832 13.1925 11.4713 13.3557 11.4962 13.5337C11.5212 13.7118 11.4814 13.8929 11.384 14.044L11.317 14.133C11.1983 14.268 11.0351 14.3559 10.8571 14.3807C10.679 14.4055 10.498 14.3655 10.347 14.268L10.258 14.201L8.749 12.876V15.25C8.74896 15.4314 8.68318 15.6066 8.56386 15.7432C8.44453 15.8798 8.27974 15.9686 8.1 15.993L7.998 15.999C7.81676 15.999 7.64166 15.9334 7.50507 15.8142C7.36848 15.6951 7.27965 15.5306 7.255 15.351L7.248 15.249V12.877L5.744 14.201C5.59455 14.3323 5.39907 14.3988 5.20056 14.386C5.00206 14.3731 4.81678 14.2819 4.6855 14.1325C4.55422 13.9831 4.48768 13.7876 4.50053 13.5891C4.51337 13.3906 4.60455 13.2053 4.754 13.074L7.249 10.879V8.749L5.296 8.75L2.927 11.448C2.79572 11.5974 2.61044 11.6886 2.41194 11.7015C2.21343 11.7143 2.01795 11.6478 1.8685 11.5165C1.71905 11.3852 1.62787 11.1999 1.61503 11.0014C1.60218 10.8029 1.66872 10.6074 1.8 10.458L3.3 8.75H0.75C0.568612 8.74996 0.393385 8.68418 0.256774 8.56486C0.120164 8.44553 0.0314269 8.28074 0.00699997 8.101L0 8C7.6429e-06 7.81876 0.0656426 7.64366 0.184767 7.50707C0.303891 7.37048 0.468446 7.28165 0.648 7.257L0.75 7.25L2.944 7.249L1.8 5.943C1.7318 5.86952 1.67902 5.78312 1.64479 5.68889C1.61055 5.59466 1.59556 5.49453 1.60069 5.39441C1.60581 5.29429 1.63096 5.19621 1.67465 5.10598C1.71833 5.01575 1.77966 4.93518 1.85501 4.86906C1.93036 4.80293 2.01821 4.75259 2.11335 4.72099C2.20849 4.6894 2.30901 4.6772 2.40895 4.68512C2.50888 4.69304 2.60622 4.72092 2.6952 4.7671C2.78418 4.81328 2.863 4.87683 2.927 4.954L4.94 7.249H7.248V5.118L4.753 2.924C4.61799 2.80533 4.5301 2.64211 4.50532 2.46408C4.48054 2.28604 4.52053 2.10503 4.618 1.954L4.685 1.866C4.80354 1.73084 4.96669 1.64275 5.14473 1.61779C5.32277 1.59282 5.50386 1.63265 5.655 1.73L5.743 1.797L7.25 3.122V0.75C7.25009 0.585656 7.30415 0.425889 7.40388 0.295264C7.50361 0.164639 7.64349 0.0703869 7.802 0.027L7.899 0.00699997L8 0Z" fill="#04353C"/>
</svg>