<svg xmlns="http://www.w3.org/2000/svg" width="30.839" height="30.84" viewBox="0 0 30.839 30.84">
  <path id="Icon_awesome-sun" data-name="Icon awesome-sun" d="M15.42,9.638A5.783,5.783,0,1,0,21.2,15.42,5.792,5.792,0,0,0,15.42,9.638Zm14.842,4.849-5.7-2.849L26.576,5.59a1.042,1.042,0,0,0-1.319-1.319L19.209,6.289,16.354.578a1.043,1.043,0,0,0-1.867,0l-2.849,5.7L5.584,4.265A1.042,1.042,0,0,0,4.265,5.584l2.018,6.048-5.7,2.855a1.043,1.043,0,0,0,0,1.867l5.7,2.849L4.265,25.257a1.042,1.042,0,0,0,1.319,1.319l6.048-2.018,2.849,5.7a1.043,1.043,0,0,0,1.867,0l2.849-5.7,6.048,2.018a1.042,1.042,0,0,0,1.319-1.319l-2.018-6.048,5.7-2.849a1.044,1.044,0,0,0,.012-1.873Zm-9.391,6.385a7.709,7.709,0,1,1,0-10.9A7.718,7.718,0,0,1,20.872,20.871Z" fill="#04353c"/>
</svg>
